<mxfile host="app.diagrams.net">
  <diagram name="" id="fcitx5">
    <mxGraphModel grid="1" gridSize="10" guides="1" tooltips="1" connect="1" arrows="1" fold="1" page="1" pageScale="1" pageWidth="600" pageHeight="300" math="0" shadow="0">
      <root>
        <mxCell id="0" />
        <mxCell id="1" parent="0" />
        <mxCell id="2" value="" style="rounded=0;whiteSpace=wrap;html=1;labelBorderColor=none;strokeWidth=0;fillColor=#000000;strokeColor=none;" parent="1" vertex="1">
          <mxGeometry width="600" height="300" as="geometry" />
        </mxCell>
        <mxCell id="3" value="Drag Fcitx5 to Input Methods" style="text;html=1;strokeColor=none;fillColor=none;align=center;verticalAlign=middle;whiteSpace=wrap;rounded=0;fontSize=18;fontColor=#FFFFFF;fontFamily=Noto Sans;fontSource=https%3A%2F%2Ffonts.googleapis.com%2Fcss%3Ffamily%3DNoto%2BSans;" parent="1" vertex="1">
          <mxGeometry x="130" y="20" width="340" height="40" as="geometry" />
        </mxCell>
        <mxCell id="4" value="" style="edgeStyle=orthogonalEdgeStyle;rounded=1;orthogonalLoop=1;jettySize=auto;html=1;strokeColor=#FFFFFF;strokeWidth=2;" parent="1" edge="1">
          <mxGeometry relative="1" as="geometry">
            <mxPoint x="370" y="130" as="sourcePoint" />
            <mxPoint x="410" y="130" as="targetPoint" />
            <Array as="points">
              <mxPoint x="180" y="130" />
              <mxPoint x="180" y="130" />
            </Array>
          </mxGeometry>
        </mxCell>
        <mxCell id="nnCZG6bCVNYmD6Afpmia-4" value="&lt;div align=&quot;left&quot;&gt;&lt;ul&gt;&lt;li&gt;If prompted an older item exists, first execute &lt;b&gt;pkill Fcitx5&lt;/b&gt; in Terminal, then click &quot;Replace&quot;.&lt;/li&gt;&lt;li&gt;Otherwise, log out then find Fcitx5 in System Settings → Keyboard → Text input → Edit... → + → English.&lt;/li&gt;&lt;/ul&gt;&lt;/div&gt;" style="text;html=1;strokeColor=none;fillColor=none;align=left;verticalAlign=middle;whiteSpace=wrap;rounded=0;fontFamily=Noto Sans;fontSource=https%3A%2F%2Ffonts.googleapis.com%2Fcss%3Ffamily%3DNoto%2BSans;fontColor=#FFFFFF;" parent="1" vertex="1">
          <mxGeometry x="150" y="150" width="260" height="90" as="geometry" />
        </mxCell>
      </root>
    </mxGraphModel>
  </diagram>
</mxfile>
